<svg xmlns="http://www.w3.org/2000/svg" version="1.1" xmlns:xlink="http://www.w3.org/1999/xlink" xmlns:svgjs="http://svgjs.com/svgjs" width="1440" height="560" preserveAspectRatio="none" viewBox="0 0 1440 560"><g mask="url(&quot;#SvgjsMask1017&quot;)" fill="none"><path d="M-172.43 125.05C13.9 126.95 169.15 321.4 545.16 326.65 921.18 331.9 1072.92 571.96 1262.76 575.46" stroke="rgba(36, 161, 156, 1)" stroke-width="2"></path><path d="M-244.84 325.1C-72.38 324.17 162.09 169.44 428.25 173.9 694.41 178.36 629.18 602.85 764.79 663.37" stroke="rgba(36, 161, 156, 1)" stroke-width="2"></path><path d="M-187.72 375.58C-32.01 372.04 166.61 154.06 395.73 157.18 624.85 160.3 562.6 578.75 687.45 647.91" stroke="rgba(36, 161, 156, 1)" stroke-width="2"></path><path d="M-107.52 245.8C44.71 248.45 230.76 432.09 469.08 441.8 707.4 451.51 669.3 638.19 757.38 648.5" stroke="rgba(36, 161, 156, 1)" stroke-width="2"></path><path d="M-86.82 422.18C94.38 421.03 351.55 253.88 618.27 254.18 884.99 254.48 855.6 541.66 970.82 562.33" stroke="rgba(36, 161, 156, 1)" stroke-width="2"></path></g><defs><mask id="SvgjsMask1017"><rect width="1440" height="560" fill="#ffffff"></rect></mask></defs></svg>