<svg xmlns="http://www.w3.org/2000/svg" xmlns:xlink="http://www.w3.org/1999/xlink" width="188.304" height="40.841" viewBox="0 0 188.304 40.841">
  <defs>
    <clipPath id="clip-path">
      <rect id="Rectangle_17396" data-name="Rectangle 17396" width="51.974" height="40.833" transform="translate(0.001 0.001)" fill="#32c985"/>
    </clipPath>
    <clipPath id="clip-path-2">
      <rect id="Rectangle_17400" data-name="Rectangle 17400" width="187.305" height="40.841" transform="translate(0 0)" fill="#666f7e"/>
    </clipPath>
  </defs>
  <g id="Group_9071" data-name="Group 9071" transform="translate(0.999 0)">
    <g id="Group_8437" data-name="Group 8437" transform="translate(-1)">
      <g id="Group_8436" data-name="Group 8436" clip-path="url(#clip-path)">
        <path id="Path_10968" data-name="Path 10968" d="M26.626,12.947c-.2-.013-.4-.036-.608-.036q-3.646,0-7.291-.008a1.839,1.839,0,0,1-1.9-1.561,1.894,1.894,0,0,1,1.129-2.106,2.321,2.321,0,0,1,.874-.133q6.473-.01,12.946,0a1.8,1.8,0,0,1,1.917,1.26,1.885,1.885,0,0,1-.564,2.108l-5.491,5.1a5.76,5.76,0,0,1-.548.4l.093.176,1.2.244a8.858,8.858,0,0,1,7.228,6.769,18.381,18.381,0,0,1,.281,3.981,11.17,11.17,0,0,1-.377,3.6,11.013,11.013,0,0,1-5.743,7,10.524,10.524,0,0,1-4.988,1.092,10.634,10.634,0,0,1-9.861-5.984,9.431,9.431,0,0,1-1.189-4.6c-.009-2.482-.007-4.965-.012-7.448,0-.668-.047-.7-.725-.717-1.056-.024-2.116-.007-3.164-.1A10.482,10.482,0,0,1,2.546,18.1,10.415,10.415,0,0,1,0,11.129C.036,6.25,2.36,2.875,6.693.808A7.623,7.623,0,0,1,10,.022C13.274.024,16.548,0,19.826,0,27.047,0,34.265.016,41.49.008a9.945,9.945,0,0,1,6.216,2.264,10.724,10.724,0,0,1,4,6.279,11.093,11.093,0,0,1-6.9,12.814,11.25,11.25,0,0,1-4.075.721A23.05,23.05,0,0,1,37.891,22a1.856,1.856,0,0,1-1.512-1.945,1.986,1.986,0,0,1,1.864-1.831c.9-.023,1.8,0,2.695-.01A7.2,7.2,0,0,0,42.471,3.988a6.952,6.952,0,0,0-1.458-.183q-15.033-.015-30.066,0A7.2,7.2,0,0,0,9.12,17.951a7.452,7.452,0,0,0,1.873.251c1.444.036,2.889.01,4.333.012a1.958,1.958,0,0,1,2.225,2.233c.008,3.009-.006,6.022.008,9.034A7.412,7.412,0,0,0,18.75,33.73a6.936,6.936,0,0,0,6.922,3.246,6.838,6.838,0,0,0,5.85-4.549,6.4,6.4,0,0,0,.469-2.036,22.434,22.434,0,0,0-.078-3.9,4.836,4.836,0,0,0-3.451-4.075,7.232,7.232,0,0,0-2.122-.314c-1.407-.046-2.818,0-4.227-.02a1.914,1.914,0,0,1-2.021-2.116,1.986,1.986,0,0,1,.736-1.351q2.729-2.532,5.45-5.069c.148-.138.274-.3.41-.451l-.059-.15" fill="#32c985"/>
      </g>
    </g>
    <path id="Path_10969" data-name="Path 10969" d="M60.888,8.385H56.673V4.93H68.967V8.385h-4.2V20.332H60.888Z" fill="#2c323f"/>
    <path id="Path_10970" data-name="Path 10970" d="M79.791,15.514c0,2.618-1.843,5.126-5.98,5.126a9.626,9.626,0,0,1-5.334-1.518l1.412-3.278a6.435,6.435,0,0,0,3.8,1.275c1.313,0,2.176-.571,2.176-1.6,0-.925-.608-1.5-2.1-1.5H72.144V11.267L74.6,8.3H69.183V4.93H79.1V7.659l-2.843,3.432a4.292,4.292,0,0,1,3.53,4.423" fill="#2c323f"/>
    <rect id="Rectangle_17398" data-name="Rectangle 17398" width="5.549" height="2.751" transform="translate(81.889 12.763)" fill="#2c323f"/>
    <path id="Path_10971" data-name="Path 10971" d="M100.2,17.472v2.86H89.576V4.93H99.948V7.79H92.732v3.345h6.373v2.773H92.732v3.564Z" fill="#2c323f"/>
    <path id="Path_10972" data-name="Path 10972" d="M112.694,4.007V20.333h-2.921V18.969a3.867,3.867,0,0,1-3.3,1.54c-2.98,0-5.274-2.376-5.274-6.1s2.294-6.095,5.274-6.095a3.844,3.844,0,0,1,3.157,1.43V4.007Zm-3,10.407c0-2.046-1.176-3.278-2.686-3.278-1.53,0-2.706,1.232-2.706,3.278s1.176,3.278,2.706,3.278c1.51,0,2.686-1.232,2.686-3.278" fill="#2c323f"/>
    <path id="Path_10973" data-name="Path 10973" d="M125.656,8.495V20.333h-2.9V18.925a4.07,4.07,0,0,1-3.275,1.584c-2.646,0-4.509-1.672-4.509-5.325V8.495h3.059v6.183c0,1.98.784,2.861,2.137,2.861,1.41,0,2.431-1.013,2.431-3.19V8.495Z" fill="#2c323f"/>
    <path id="Path_10974" data-name="Path 10974" d="M127.225,14.414a5.764,5.764,0,0,1,5.882-6.095,4.791,4.791,0,0,1,4.726,3.015l-2.373,1.43a2.608,2.608,0,0,0-2.372-1.628c-1.55,0-2.765,1.21-2.765,3.278s1.215,3.278,2.765,3.278a2.572,2.572,0,0,0,2.372-1.628l2.373,1.453a4.834,4.834,0,0,1-4.726,2.992,5.764,5.764,0,0,1-5.882-6.1" fill="#2c323f"/>
    <path id="Path_10975" data-name="Path 10975" d="M148.441,13.577v6.755h-2.863V18.858a3.343,3.343,0,0,1-3.216,1.65c-2.47,0-3.94-1.54-3.94-3.586,0-2.091,1.313-3.543,4.529-3.543h2.431a2.128,2.128,0,0,0-2.431-2.332,4.711,4.711,0,0,0-3.039,1.1l-1.1-2.4a7.468,7.468,0,0,1,4.548-1.429c3.216,0,5.079,1.671,5.079,5.258m-3.059,3.015V15.381h-2.1c-1.431,0-1.882.6-1.882,1.387,0,.858.647,1.429,1.725,1.429a2.255,2.255,0,0,0,2.255-1.605" fill="#2c323f"/>
    <path id="Path_10976" data-name="Path 10976" d="M157.519,19.76a4.019,4.019,0,0,1-2.49.748c-2.49,0-3.941-1.43-3.941-4.246V11.4H149.46V8.759h1.628V5.876h3.059V8.759h2.627V11.4h-2.627v4.819c0,1.012.49,1.562,1.313,1.562a1.915,1.915,0,0,0,1.236-.44Z" fill="#2c323f"/>
    <path id="Path_10977" data-name="Path 10977" d="M158.383,4.93a1.843,1.843,0,0,1,1.9-1.914,1.8,1.8,0,0,1,1.9,1.849,1.9,1.9,0,1,1-3.8.065m.373,3.565h3.059V20.333h-3.059Z" fill="#2c323f"/>
    <path id="Path_10978" data-name="Path 10978" d="M163.383,14.414a5.8,5.8,0,1,1,11.588,0,5.8,5.8,0,1,1-11.588,0m8.49,0c0-2.046-1.157-3.278-2.687-3.278s-2.705,1.232-2.705,3.278,1.176,3.278,2.705,3.278,2.687-1.232,2.687-3.278" fill="#2c323f"/>
    <path id="Path_10979" data-name="Path 10979" d="M187.3,13.555v6.777h-3.059V14.083c0-1.914-.784-2.794-2.137-2.794-1.471,0-2.529,1.012-2.529,3.191v5.852h-3.059V8.494h2.922V9.881a4.37,4.37,0,0,1,3.49-1.562c2.49,0,4.372,1.628,4.372,5.236" fill="#2c323f"/>
    <g id="Group_8443" data-name="Group 8443">
      <g id="Group_8442" data-name="Group 8442" clip-path="url(#clip-path-2)">
        <path id="Path_10981" data-name="Path 10981" d="M64.937,29.193h3.039a2.186,2.186,0,0,1,1.578.51,1.884,1.884,0,0,1,.526,1.42,2.289,2.289,0,0,1-.134.844,1.855,1.855,0,0,1-.312.54,1.217,1.217,0,0,1-.352.295,2.2,2.2,0,0,1-.254.12v.021a1.029,1.029,0,0,1,.308.1.919.919,0,0,1,.307.254,1.445,1.445,0,0,1,.236.456,2.21,2.21,0,0,1,.094.7,7.12,7.12,0,0,0,.084,1.144,1.6,1.6,0,0,0,.264.736H69.126a1.279,1.279,0,0,1-.147-.51c-.015-.187-.022-.367-.022-.54a5.7,5.7,0,0,0-.054-.845,1.606,1.606,0,0,0-.2-.591.854.854,0,0,0-.387-.344,1.535,1.535,0,0,0-.629-.111h-1.64v2.941H64.937Zm1.114,3.25h1.827a1.082,1.082,0,0,0,.811-.285,1.189,1.189,0,0,0,.277-.856,1.469,1.469,0,0,0-.089-.554.8.8,0,0,0-.245-.335.846.846,0,0,0-.357-.16,2.091,2.091,0,0,0-.414-.04h-1.81Z" fill="#666f7e"/>
        <path id="Path_10982" data-name="Path 10982" d="M71.737,29.193h1.114v4.159c0,.24.011.485.032.731a1.8,1.8,0,0,0,.178.665,1.211,1.211,0,0,0,.446.485,1.97,1.97,0,0,0,1.684,0,1.218,1.218,0,0,0,.446-.485,1.824,1.824,0,0,0,.178-.665c.021-.246.031-.491.031-.731V29.193H76.96v4.569a3.482,3.482,0,0,1-.187,1.2,2.352,2.352,0,0,1-.53.855,2.182,2.182,0,0,1-.825.515,3.449,3.449,0,0,1-2.139,0,2.171,2.171,0,0,1-.824-.515,2.341,2.341,0,0,1-.531-.855,3.482,3.482,0,0,1-.187-1.2Z" fill="#666f7e"/>
        <path id="Path_10983" data-name="Path 10983" d="M79.572,33.953a1.77,1.77,0,0,0,.125.7,1.231,1.231,0,0,0,.348.475,1.406,1.406,0,0,0,.512.27,2.212,2.212,0,0,0,.628.085,1.82,1.82,0,0,0,.624-.1,1.2,1.2,0,0,0,.419-.246.878.878,0,0,0,.232-.344,1.133,1.133,0,0,0,.071-.4.924.924,0,0,0-.165-.6.937.937,0,0,0-.36-.275,7.248,7.248,0,0,0-.789-.265c-.3-.083-.67-.192-1.11-.326a2.247,2.247,0,0,1-.682-.314,1.7,1.7,0,0,1-.432-.436,1.613,1.613,0,0,1-.228-.509,2.313,2.313,0,0,1-.067-.55,2.037,2.037,0,0,1,.2-.935,1.951,1.951,0,0,1,.53-.655,2.211,2.211,0,0,1,.749-.385,2.92,2.92,0,0,1,.847-.125,2.98,2.98,0,0,1,.94.145,2.254,2.254,0,0,1,.776.434,2.118,2.118,0,0,1,.53.716,2.325,2.325,0,0,1,.2.985H82.353a1.258,1.258,0,0,0-.419-.975,1.532,1.532,0,0,0-.954-.285,1.813,1.813,0,0,0-.4.045,1.193,1.193,0,0,0-.374.15.851.851,0,0,0-.281.285.841.841,0,0,0-.111.45.819.819,0,0,0,.209.6,1.3,1.3,0,0,0,.549.324l.28.085q.245.077.548.165t.593.176c.193.057.331.1.414.125a1.766,1.766,0,0,1,.544.3,1.837,1.837,0,0,1,.388.435,1.912,1.912,0,0,1,.232.525,2.156,2.156,0,0,1,.075.56,2.226,2.226,0,0,1-.218,1.025,2.011,2.011,0,0,1-.575.7,2.366,2.366,0,0,1-.811.395,3.494,3.494,0,0,1-.927.125,3.4,3.4,0,0,1-1.025-.151,2.288,2.288,0,0,1-.838-.46,2.195,2.195,0,0,1-.57-.794,2.92,2.92,0,0,1-.223-1.145Z" fill="#666f7e"/>
        <path id="Path_10984" data-name="Path 10984" d="M84.608,29.193H89.76v1.08H87.736v6.06H86.622v-6.06H84.608Z" fill="#666f7e"/>
        <path id="Path_10985" data-name="Path 10985" d="M90.045,34.983h1.239v1.35a1.675,1.675,0,0,1-.339,1.04,1.477,1.477,0,0,1-.864.54V37.3a.682.682,0,0,0,.441-.364,1.228,1.228,0,0,0,.138-.6h-.615Z" fill="#666f7e"/>
        <path id="Path_10986" data-name="Path 10986" d="M95.651,29.193H100.8v1.08H98.779v6.06H97.665v-6.06H95.651Z" fill="#666f7e"/>
        <path id="Path_10987" data-name="Path 10987" d="M102.14,29.193h3.039a2.186,2.186,0,0,1,1.578.51,1.884,1.884,0,0,1,.526,1.42,2.29,2.29,0,0,1-.134.844,1.855,1.855,0,0,1-.312.54,1.217,1.217,0,0,1-.352.295,2.2,2.2,0,0,1-.254.12v.021a1.029,1.029,0,0,1,.308.1.919.919,0,0,1,.307.254,1.445,1.445,0,0,1,.236.456,2.211,2.211,0,0,1,.094.7,7.12,7.12,0,0,0,.084,1.144,1.6,1.6,0,0,0,.264.736h-1.195a1.279,1.279,0,0,1-.147-.51c-.015-.187-.022-.367-.022-.54a5.7,5.7,0,0,0-.054-.845,1.606,1.606,0,0,0-.2-.591.854.854,0,0,0-.387-.344,1.535,1.535,0,0,0-.629-.111h-1.64v2.941H102.14Zm1.114,3.25h1.827a1.082,1.082,0,0,0,.811-.285,1.189,1.189,0,0,0,.277-.856,1.469,1.469,0,0,0-.089-.554.8.8,0,0,0-.245-.335.846.846,0,0,0-.357-.16,2.091,2.091,0,0,0-.414-.04h-1.81Z" fill="#666f7e"/>
        <path id="Path_10988" data-name="Path 10988" d="M110.715,29.193H111.9l2.451,7.14h-1.195l-.6-1.89h-2.54l-.6,1.89h-1.151Zm-.392,4.3h1.943l-.954-3.07h-.027Z" fill="#666f7e"/>
        <path id="Path_10989" data-name="Path 10989" d="M119.85,31.463a2.79,2.79,0,0,0-.2-.57,1.547,1.547,0,0,0-.321-.45,1.394,1.394,0,0,0-.459-.294,1.794,1.794,0,0,0-1.488.125,1.805,1.805,0,0,0-.6.614,2.943,2.943,0,0,0-.343.875,4.52,4.52,0,0,0,0,2,2.922,2.922,0,0,0,.343.875,1.8,1.8,0,0,0,.6.615,1.63,1.63,0,0,0,.878.231,1.431,1.431,0,0,0,.659-.146,1.5,1.5,0,0,0,.49-.4,1.95,1.95,0,0,0,.321-.6,3.172,3.172,0,0,0,.152-.73h1.087a3.722,3.722,0,0,1-.245,1.17,2.9,2.9,0,0,1-.566.915,2.481,2.481,0,0,1-.838.595,2.622,2.622,0,0,1-1.06.21,2.738,2.738,0,0,1-1.28-.295,2.858,2.858,0,0,1-.958-.805,3.723,3.723,0,0,1-.6-1.19,5.076,5.076,0,0,1,0-2.89,3.734,3.734,0,0,1,.6-1.19,2.932,2.932,0,0,1,.958-.81,2.692,2.692,0,0,1,1.28-.3,3,3,0,0,1,1.006.165,2.5,2.5,0,0,1,.834.479,2.441,2.441,0,0,1,.584.765,2.9,2.9,0,0,1,.276,1.03Z" fill="#666f7e"/>
        <path id="Path_10990" data-name="Path 10990" d="M122.587,29.193H123.7v3.25l2.835-3.25h1.372l-2.54,2.85,2.718,4.29H126.7l-2.086-3.411-.909,1.01v2.4h-1.114Z" fill="#666f7e"/>
        <path id="Path_10991" data-name="Path 10991" d="M134.066,29.193h1.187l2.451,7.14h-1.2l-.6-1.89h-2.539l-.6,1.89h-1.151Zm-.392,4.3h1.943l-.954-3.07h-.026Z" fill="#666f7e"/>
        <path id="Path_10992" data-name="Path 10992" d="M138.862,29.193h1.177l2.9,5.26h.018v-5.26h1.061v7.14h-1.177l-2.9-5.25h-.026v5.25h-1.061Z" fill="#666f7e"/>
        <path id="Path_10993" data-name="Path 10993" d="M145.939,29.193h2.638a2.7,2.7,0,0,1,1.266.279,2.44,2.44,0,0,1,.874.766,3.447,3.447,0,0,1,.5,1.135,5.938,5.938,0,0,1,0,2.78,3.465,3.465,0,0,1-.5,1.135,2.416,2.416,0,0,1-.874.764,2.69,2.69,0,0,1-1.266.281h-2.638Zm1.114,6.12h1.1a2.516,2.516,0,0,0,1.066-.195,1.592,1.592,0,0,0,.65-.54,2.062,2.062,0,0,0,.321-.811,5.984,5.984,0,0,0,0-2.01,2.053,2.053,0,0,0-.321-.809,1.576,1.576,0,0,0-.65-.54,2.515,2.515,0,0,0-1.066-.2h-1.1Z" fill="#666f7e"/>
        <path id="Path_10994" data-name="Path 10994" d="M155.44,29.193h5.152v1.08h-2.024v6.06h-1.114v-6.06H155.44Z" fill="#666f7e"/>
        <path id="Path_10995" data-name="Path 10995" d="M161.929,29.193h3.039a2.186,2.186,0,0,1,1.578.51,1.884,1.884,0,0,1,.526,1.42,2.29,2.29,0,0,1-.134.844,1.856,1.856,0,0,1-.312.54,1.217,1.217,0,0,1-.352.295,2.2,2.2,0,0,1-.254.12v.021a1.029,1.029,0,0,1,.308.1.919.919,0,0,1,.307.254,1.445,1.445,0,0,1,.236.456,2.21,2.21,0,0,1,.094.7,7.12,7.12,0,0,0,.084,1.144,1.6,1.6,0,0,0,.264.736h-1.2a1.279,1.279,0,0,1-.147-.51c-.015-.187-.022-.367-.022-.54a5.7,5.7,0,0,0-.054-.845,1.606,1.606,0,0,0-.2-.591.854.854,0,0,0-.387-.344,1.535,1.535,0,0,0-.629-.111h-1.64v2.941h-1.114Zm1.114,3.25h1.827a1.082,1.082,0,0,0,.811-.285,1.189,1.189,0,0,0,.277-.856,1.469,1.469,0,0,0-.089-.554.8.8,0,0,0-.245-.335.846.846,0,0,0-.357-.16,2.091,2.091,0,0,0-.414-.04h-1.81Z" fill="#666f7e"/>
        <path id="Path_10996" data-name="Path 10996" d="M170.5,29.193h1.186l2.452,7.14h-1.2l-.6-1.89h-2.539l-.6,1.89h-1.151Zm-.392,4.3h1.943l-.954-3.07h-.026Z" fill="#666f7e"/>
        <path id="Path_10997" data-name="Path 10997" d="M179.639,31.463a2.79,2.79,0,0,0-.2-.57,1.546,1.546,0,0,0-.321-.45,1.394,1.394,0,0,0-.459-.294,1.794,1.794,0,0,0-1.488.125,1.805,1.805,0,0,0-.6.614,2.944,2.944,0,0,0-.343.875,4.52,4.52,0,0,0,0,2,2.922,2.922,0,0,0,.343.875,1.8,1.8,0,0,0,.6.615,1.63,1.63,0,0,0,.878.231,1.431,1.431,0,0,0,.659-.146,1.5,1.5,0,0,0,.49-.4,1.949,1.949,0,0,0,.321-.6,3.171,3.171,0,0,0,.152-.73h1.087a3.721,3.721,0,0,1-.245,1.17,2.9,2.9,0,0,1-.566.915,2.481,2.481,0,0,1-.838.595,2.622,2.622,0,0,1-1.06.21,2.738,2.738,0,0,1-1.28-.295,2.858,2.858,0,0,1-.958-.805,3.723,3.723,0,0,1-.6-1.19,5.076,5.076,0,0,1,0-2.89,3.734,3.734,0,0,1,.6-1.19,2.932,2.932,0,0,1,.958-.81,2.692,2.692,0,0,1,1.28-.3,3,3,0,0,1,1.006.165,2.5,2.5,0,0,1,.834.479,2.441,2.441,0,0,1,.584.765,2.905,2.905,0,0,1,.276,1.03Z" fill="#666f7e"/>
        <path id="Path_10998" data-name="Path 10998" d="M182.375,29.193h4.582v1.08H183.49v1.869H186.7v1.021H183.49v2.09h3.529v1.08h-4.644Z" fill="#666f7e"/>
      </g>
      <path id="Path_10980" data-name="Path 10980" d="M58.448,29.193H63.6v1.08H61.576v6.06H60.462v-6.06H58.448Z" fill="#666f7e"/>
    </g>
  </g>
</svg>
