<svg xmlns="http://www.w3.org/2000/svg" xlink="http://www.w3.org/1999/xlink" width="188.306" height="60.994" viewBox="0 0 188.306 60.994">
          <defs>
            <linearGradient id="linear-gradient" x1="-0.117" y1="27.052" x2="1.104" y2="27.156" gradientUnits="objectBoundingBox">
              <stop offset="0" stop-color="#0082f8"/>
              <stop offset="1" stop-color="#1c40f2"/>
            </linearGradient>
          </defs>
          <g id="logo_copy" data-name="logo copy" transform="translate(-0.9 -0.85)">
            <g id="Group_28" data-name="Group 28" transform="translate(65.635 17.178)">
              <g id="Group_26" data-name="Group 26" transform="translate(0.432)">
                <path id="Path_35" data-name="Path 35" d="M56.558,20.887H49.365v3.74h7.912l-.432,2.733H46.2V12.4H56.845v2.733h-7.48V18.3h7.193Z" transform="translate(-46.2 -12.112)" fill="#001042"/>
                <path id="Path_36" data-name="Path 36" d="M55.5,12.4h5.9a6.946,6.946,0,0,1,7.337,7.337c0,4.459-2.733,7.624-7.337,7.624H55.644C55.5,27.361,55.5,12.4,55.5,12.4Zm3.165,12.372H61.11c2.877,0,4.172-2.158,4.172-5.035,0-2.446-1.151-4.747-4.172-4.747H58.665Z" transform="translate(-42.122 -12.112)" fill="#001042"/>
                <path id="Path_37" data-name="Path 37" d="M69.665,12.4v8.919c0,2.877,1.439,3.74,3.165,3.74,1.87,0,3.021-1.007,3.021-3.74V12.4h3.309v8.775c0,5.035-3.021,6.473-6.33,6.473-3.453,0-6.33-1.295-6.33-6.473V12.4h3.165Z" transform="translate(-37.298 -12.112)" fill="#001042"/>
                <path id="Path_38" data-name="Path 38" d="M90.522,22.8c-.575,2.733-2.733,4.891-6.473,4.891C79.3,27.692,77,24.24,77,20.068S79.3,12.3,84.193,12.3c4.028,0,5.9,2.3,6.33,4.891H87.214a3.063,3.063,0,0,0-3.165-2.3c-2.733,0-3.74,2.446-3.74,5.035s.863,5.179,3.74,5.179a3.038,3.038,0,0,0,3.021-2.3Z" transform="translate(-32.693 -12.156)" fill="#001042"/>
                <path id="Path_39" data-name="Path 39" d="M91.416,23.908l-1.151,3.453H87.1L92.135,12.4h4.172l5.323,14.961H98.177l-1.151-3.453Zm4.747-2.589a54.183,54.183,0,0,1-2.014-6.473h0c-.432,1.439-1.151,3.884-1.87,6.473Z" transform="translate(-28.263 -12.112)" fill="#001042"/>
                <path id="Path_40" data-name="Path 40" d="M100.8,15.133H96.2V12.4h12.372v2.733h-4.46V27.5H100.8Z" transform="translate(-24.273 -12.112)" fill="#001042"/>
                <path id="Path_41" data-name="Path 41" d="M109.409,12.4V27.361H106.1V12.4Z" transform="translate(-19.931 -12.112)" fill="#001042"/>
                <path id="Path_42" data-name="Path 42" d="M124.929,19.968c0,4.172-2.589,7.768-7.337,7.768s-7.193-3.453-7.193-7.768,2.733-7.768,7.337-7.768C122.052,12.344,124.929,15.365,124.929,19.968Zm-11.221,0c0,2.877,1.295,5.035,4.028,5.035,2.877,0,3.884-2.446,3.884-5.035,0-2.733-1.151-5.035-4.028-5.035C115,14.933,113.709,17.091,113.709,19.968Z" transform="translate(-18.045 -12.2)" fill="#001042"/>
                <path id="Path_43" data-name="Path 43" d="M122.4,27.361V12.4h4.028c1.87,3.453,5.323,9.494,6.042,11.077h0c-.144-1.582-.144-4.172-.144-6.617V12.4H135.2V27.361h-3.74c-1.582-2.877-5.466-9.926-6.186-11.652h0c.144,1.295.144,4.316.144,7.049v4.6Z" transform="translate(-12.783 -12.112)" fill="#001042"/>
              </g>
              <g id="Group_27" data-name="Group 27" transform="translate(0 20.715)">
                <path id="Path_44" data-name="Path 44" d="M47.77,27.419H45.9V26.7h4.459v.719h-1.87v4.459h-.863l.144-4.459Z" transform="translate(-45.9 -26.556)" fill="#7c7c7c"/>
                <path id="Path_45" data-name="Path 45" d="M51.163,29.577v2.158H50.3V26.7h2.446c1.007,0,1.726.575,1.726,1.439a1.094,1.094,0,0,1-.863,1.151c.288.144.719.288.719,1.295v1.151h-.863a2.133,2.133,0,0,1-.144-1.007v-.144c0-.719-.288-1.007-1.151-1.007Zm0-.575H52.6c.719,0,1.151-.288,1.151-.863s-.288-.719-1.007-.719H51.307L51.163,29Z" transform="translate(-43.97 -26.556)" fill="#7c7c7c"/>
                <path id="Path_46" data-name="Path 46" d="M55.375,26.7v2.877c0,1.295.719,1.582,1.439,1.582.863,0,1.439-.432,1.439-1.582V26.7h.863v2.877a2.013,2.013,0,0,1-2.158,2.3A1.9,1.9,0,0,1,54.8,29.721V26.7Z" transform="translate(-41.997 -26.556)" fill="#7c7c7c"/>
                <path id="Path_47" data-name="Path 47" d="M59.907,30.34a1.318,1.318,0,0,0,1.439,1.007q1.295,0,1.295-.863c0-.432-.288-.719-1.439-1.007-1.582-.288-1.87-.719-1.87-1.439,0-.863.863-1.439,2.014-1.439,1.582,0,2.014.863,2.014,1.439H62.5c-.144-.288-.288-.719-1.295-.719-.719,0-1.151.288-1.151.719s.288.575,1.295.863c1.726.288,2.014.863,2.014,1.582,0,.863-.719,1.582-2.158,1.582s-2.158-.719-2.3-1.582h1.007V30.34Z" transform="translate(-40.199 -26.6)" fill="#7c7c7c"/>
                <path id="Path_48" data-name="Path 48" d="M64.97,27.419H63.1V26.7H67.56v.719h-1.87v4.459h-.863V27.419Z" transform="translate(-38.357 -26.556)" fill="#7c7c7c"/>
                <path id="Path_49" data-name="Path 49" d="M66.7,31.558a4.832,4.832,0,0,0,.575-2.158h.863a5.474,5.474,0,0,1-.719,2.158Z" transform="translate(-36.778 -25.372)" fill="#7c7c7c"/>
                <path id="Path_50" data-name="Path 50" d="M72.67,27.419H70.8V26.7h4.459v.719h-1.87v4.459H72.67V27.419Z" transform="translate(-34.98 -26.556)" fill="#7c7c7c"/>
                <path id="Path_51" data-name="Path 51" d="M76.063,29.577v2.158H75.2V26.7h2.446c1.007,0,1.726.575,1.726,1.439a1.094,1.094,0,0,1-.863,1.151c.288.144.719.288.719,1.295v1.151h-.863a2.133,2.133,0,0,1-.144-1.007v-.144c0-.719-.288-1.007-1.151-1.007Zm0-.575H77.5c.719,0,1.151-.288,1.151-.863s-.288-.719-1.007-.719H76.207V29Z" transform="translate(-33.051 -26.556)" fill="#7c7c7c"/>
                <path id="Path_52" data-name="Path 52" d="M80.739,30.3l-.575,1.439H79.3L81.314,26.7h1.007l2.158,5.035h-.863L83.04,30.3Zm2.014-.719c-.575-1.295-.863-2.014-1.007-2.3h0c-.144.432-.432,1.151-.863,2.3Z" transform="translate(-31.253 -26.556)" fill="#7c7c7c"/>
                <path id="Path_53" data-name="Path 53" d="M88.791,30.3a2.141,2.141,0,0,1-2.3,1.582A2.415,2.415,0,0,1,83.9,29.289,2.492,2.492,0,0,1,86.489,26.7c1.439,0,2.158.719,2.3,1.582h-.863a1.462,1.462,0,0,0-1.439-1.007c-1.151,0-1.726.863-1.726,2.014A1.82,1.82,0,0,0,86.489,31.3,1.318,1.318,0,0,0,87.928,30.3Z" transform="translate(-29.235 -26.556)" fill="#7c7c7c"/>
                <path id="Path_54" data-name="Path 54" d="M88.844,26.7h.863v2.446c.719-.575,1.87-1.582,2.733-2.446h1.007L91,28.858l2.589,2.877H92.584l-2.3-2.446-.719.575v1.87H88.7l.144-5.035Z" transform="translate(-27.13 -26.556)" fill="#7c7c7c"/>
                <path id="Path_55" data-name="Path 55" d="M96.239,30.3l-.575,1.439H94.8L96.814,26.7h1.007l2.158,5.035h-.863L98.54,30.3Zm2.158-.719c-.575-1.295-.863-2.014-1.007-2.3h0c-.144.432-.432,1.151-.863,2.3Z" transform="translate(-24.455 -26.556)" fill="#7c7c7c"/>
                <path id="Path_56" data-name="Path 56" d="M99.8,31.735V26.7h1.007c1.151,1.582,2.589,3.6,2.877,4.028h0V26.7h.719v5.035H103.4a44.774,44.774,0,0,1-2.877-4.316h0v4.316Z" transform="translate(-22.262 -26.556)" fill="#7c7c7c"/>
                <path id="Path_57" data-name="Path 57" d="M104.6,26.7h2.014a2.381,2.381,0,0,1,2.589,2.446,2.492,2.492,0,0,1-2.589,2.589H104.6Zm.863,4.316h1.151a1.672,1.672,0,0,0,1.87-1.87,1.738,1.738,0,0,0-1.87-1.87h-1.151Z" transform="translate(-20.157 -26.556)" fill="#7c7c7c"/>
                <path id="Path_58" data-name="Path 58" d="M112.87,27.419H111V26.7h4.459v.719h-1.87v4.459h-.863V27.419Z" transform="translate(-17.351 -26.556)" fill="#7c7c7c"/>
                <path id="Path_59" data-name="Path 59" d="M116.263,29.577v2.158H115.4V26.7h2.446c1.007,0,1.726.575,1.726,1.439a1.094,1.094,0,0,1-.863,1.151c.288.144.719.288.719,1.295v1.151h-.863a2.133,2.133,0,0,1-.144-1.007v-.144c0-.719-.288-1.007-1.151-1.007Zm0-.575H117.7c.719,0,1.151-.288,1.151-.863s-.288-.719-1.007-.719h-1.439V29Z" transform="translate(-15.421 -26.556)" fill="#7c7c7c"/>
                <path id="Path_60" data-name="Path 60" d="M120.939,30.3l-.575,1.439H119.5l2.014-5.035h1.007l2.158,5.035h-.863L123.24,30.3Zm2.158-.719c-.575-1.295-.863-2.014-1.007-2.3h0c-.144.432-.432,1.151-.863,2.3Z" transform="translate(-13.623 -26.556)" fill="#7c7c7c"/>
                <path id="Path_61" data-name="Path 61" d="M129.091,30.3a2.141,2.141,0,0,1-2.3,1.582,2.415,2.415,0,0,1-2.589-2.589,2.492,2.492,0,0,1,2.589-2.589c1.439,0,2.158.719,2.3,1.582h-.863a1.462,1.462,0,0,0-1.439-1.007c-1.151,0-1.726.863-1.726,2.014a1.82,1.82,0,0,0,1.726,2.014,1.318,1.318,0,0,0,1.439-1.007Z" transform="translate(-11.562 -26.556)" fill="#7c7c7c"/>
                <path id="Path_62" data-name="Path 62" d="M132.74,29.433h-2.877v1.582h3.165l-.144.719H129V26.7h3.884v.719h-3.021v1.439h2.877v.575Z" transform="translate(-9.457 -26.556)" fill="#7c7c7c"/>
              </g>
            </g>
            <path id="Path_63" data-name="Path 63" d="M23.7,14.2" transform="translate(9.999 5.855)" fill="#fff"/>
            <g id="Group_32" data-name="Group 32" transform="translate(0.9 0.85)">
              <path id="Path_64" data-name="Path 64" d="M22.766,2.36a11.716,11.716,0,0,1,11.508,0L50.53,11.855a11.355,11.355,0,0,1,5.61,9.782v19.42a11.355,11.355,0,0,1-5.61,9.782L34.274,60.334a11.716,11.716,0,0,1-11.508,0L6.51,50.84A11.355,11.355,0,0,1,.9,41.057V21.637a11.355,11.355,0,0,1,5.61-9.782Z" transform="translate(-0.9 -0.85)" fill="url(#linear-gradient)"/>
              <g id="Group_31" data-name="Group 31" transform="translate(3.884 15.752)">
                <g id="Group_29" data-name="Group 29">
                  <path id="Path_65" data-name="Path 65" d="M35.162,20.635l-.144-.144,4.6-4.891H36.889l-5.466,6.186L33,22.217l.432.144a7.886,7.886,0,0,1,5.323,7.193,8.273,8.273,0,0,1-7.48,8.2h-.863a8.2,8.2,0,0,1-6.761-4.6,2.045,2.045,0,0,1-.288-.863h2.589c0,.144.144.144.144.288a5.407,5.407,0,1,0,2.158-7.337h0l-1.582-1.582,7.049-7.768H15.31V37.61H11.57V20.347H9.7V39.336h7.768V17.47h11.8l-5.61,6.186,4.459,4.028.719-.575.144-.144.863-.432A3.321,3.321,0,1,1,27.682,30.7h0l-.288-.719H20.633a8.561,8.561,0,0,0,.144,1.151,7.857,7.857,0,0,0,.863,2.589,9.868,9.868,0,0,0,8.487,5.754h1.151a9.968,9.968,0,0,0,3.884-18.845Z" transform="translate(-0.925 -10.134)" fill="#fff"/>
                  <rect id="Rectangle_627" data-name="Rectangle 627" width="10.933" height="1.87" transform="translate(0 5.466)" fill="#fff"/>
                  <path id="Path_66" data-name="Path 66" d="M3.6,11.8v1.87H45.606l1.726-1.87Z" transform="translate(-3.6 -11.8)" fill="#fff"/>
                </g>
                <g id="Group_30" data-name="Group 30" transform="translate(42.869 2.877)">
                  <path id="Path_67" data-name="Path 67" d="M35.7,13.8a2.475,2.475,0,1,1-1.582.719A2.31,2.31,0,0,1,35.7,13.8Zm0,4.172A1.4,1.4,0,0,0,37,17.4a1.757,1.757,0,0,0,.575-1.295A1.4,1.4,0,0,0,37,14.807a1.757,1.757,0,0,0-1.295-.575,1.4,1.4,0,0,0-1.295.575,1.757,1.757,0,0,0-.575,1.295,1.4,1.4,0,0,0,.575,1.295A1.4,1.4,0,0,0,35.7,17.972Zm1.007-1.439c0,.288-.144.432-.432.575a1.078,1.078,0,0,1-.719.144,2.045,2.045,0,0,1-.863-.288,2.045,2.045,0,0,1-.288-.863,1.216,1.216,0,0,1,.288-.863c.144-.288.432-.288.863-.288.288,0,.432,0,.575.144a1.986,1.986,0,0,1,.432.575l-.288.144a.665.665,0,0,0-.719-.432.747.747,0,0,0-.575.288,1.078,1.078,0,0,0-.144.719,1.078,1.078,0,0,0,.144.719.747.747,0,0,0,.575.288.528.528,0,0,0,.432-.144c.144-.144.288-.288.288-.432Z" transform="translate(-33.4 -13.8)" fill="#fff"/>
                </g>
              </g>
            </g>
          </g>
        </svg>